<?xml version="1.0" encoding="utf-8"?>
<!-- Generator: Adobe Illustrator 27.7.0, SVG Export Plug-In . SVG Version: 6.00 Build 0)  -->
<svg version="1.1" id="Layer_1" xmlns="http://www.w3.org/2000/svg" xmlns:xlink="http://www.w3.org/1999/xlink" x="0px" y="0px"
	 viewBox="0 0 960 232.2" style="enable-background:new 0 0 960 232.2;" xml:space="preserve">
<polygon style="fill:#F6DCDD;stroke:#C4161C;stroke-width:3;stroke-miterlimit:10;" points="780.5,171.3 783,131.6 818.5,99.7 
	813.5,70 832.9,42 894.9,42 922.9,96.8 917.9,161.3 864,201.7 "/>
<polygon style="fill:#FFFFFF;stroke:#C4161C;stroke-width:3;stroke-miterlimit:10;" points="841,136.6 884.9,126.6 859,114.3 "/>
<polygon style="fill:#F6DCDD;stroke:#C4161C;stroke-width:3;stroke-miterlimit:10;" points="690,70 697.5,89.7 746,84.7 736,52 "/>
<g>
	<path d="M310.6,27v199.2H1.4V27H310.6 M311,26.6H1v200h310V26.6L311,26.6z"/>
</g>
<g>
	<path d="M634.6,27v199.2H325.4V27H634.6 M635,26.6H325v200h310V26.6L635,26.6z"/>
</g>
<g>
	<path d="M958.6,27v199.2H649.4V27H958.6 M959,26.6H649v200h310V26.6L959,26.6z"/>
</g>
<g style="enable-background:new    ;">
	<path style="fill:#C4161C;" d="M5.6,8.2L5.6,8.2L3.1,9.4L2.7,7.5L6,5.9H8v13.6H5.6V8.2z"/>
	<path style="fill:#C4161C;" d="M25.4,9.3c0,0.7-0.1,1.6-0.1,3v5.8c0,2.2-0.4,3.6-1.4,4.5c-0.9,0.9-2.3,1.2-3.7,1.2
		c-1.2,0-2.4-0.3-3.2-0.7l0.5-1.9c0.6,0.3,1.6,0.7,2.7,0.7c1.6,0,2.6-0.9,2.6-3v-0.9h0c-0.5,0.8-1.4,1.4-2.6,1.4c-2.4,0-4-2.2-4-5
		c0-3.4,2-5.4,4.2-5.4c1.4,0,2.2,0.7,2.6,1.5h0l0.1-1.3H25.4z M22.8,13.3c0-0.3,0-0.5-0.1-0.7c-0.2-0.8-0.9-1.5-1.8-1.5
		c-1.3,0-2.2,1.3-2.2,3.4c0,1.9,0.8,3.2,2.2,3.2c0.8,0,1.5-0.5,1.8-1.4c0.1-0.3,0.1-0.6,0.1-0.9V13.3z"/>
	<path style="fill:#C4161C;" d="M29.7,15.1c0.1,2,1.4,2.7,2.9,2.7c1,0,1.8-0.2,2.5-0.4l0.4,1.7c-0.8,0.3-2,0.6-3.3,0.6
		c-3.1,0-4.9-2-4.9-5.1c0-3,1.7-5.5,4.6-5.5S36,11.6,36,14c0,0.5,0,0.9-0.1,1.1H29.7z M33.7,13.3c0-1.2-0.4-2.5-1.9-2.5
		c-1.4,0-2,1.4-2.1,2.5H33.7z M35,5l-2.5,3h-1.7l1.7-3H35z"/>
	<path style="fill:#C4161C;" d="M46.8,14.3c0,3.9-2.5,5.4-4.8,5.4c-2.7,0-4.7-1.9-4.7-5.3c0-3.4,2.1-5.4,4.8-5.4
		C45,9.1,46.8,11.1,46.8,14.3z M39.9,14.4c0,1.9,0.8,3.5,2.2,3.5c1.4,0,2.2-1.6,2.2-3.5c0-1.6-0.6-3.5-2.2-3.5
		C40.5,10.9,39.9,12.8,39.9,14.4z"/>
	<path style="fill:#C4161C;" d="M48.8,12.3c0-1.2,0-2.1-0.1-3h2.1l0.1,1.4H51c0.5-0.8,1.4-1.6,2.9-1.6c1.3,0,2.2,0.7,2.6,1.8h0
		c0.3-0.5,0.7-0.9,1.2-1.2c0.5-0.3,1.1-0.5,1.9-0.5c1.7,0,3.1,1.2,3.1,4.2v6.2h-2.4v-5.8c0-1.6-0.5-2.6-1.6-2.6
		c-0.8,0-1.4,0.6-1.6,1.3c-0.1,0.2-0.1,0.5-0.1,0.8v6.3h-2.4v-6.1c0-1.3-0.4-2.3-1.6-2.3c-0.8,0-1.4,0.7-1.7,1.4
		c-0.1,0.3-0.1,0.5-0.1,0.8v6.2h-2.4V12.3z"/>
	<path style="fill:#C4161C;" d="M67.2,15.1c0.1,2,1.4,2.7,2.9,2.7c1,0,1.8-0.2,2.5-0.4l0.4,1.7c-0.8,0.3-2,0.6-3.3,0.6
		c-3.1,0-4.9-2-4.9-5.1c0-3,1.7-5.5,4.6-5.5s4.1,2.5,4.1,4.9c0,0.5,0,0.9-0.1,1.1H67.2z M71.2,13.3c0-1.2-0.4-2.5-1.9-2.5
		c-1.4,0-2,1.4-2.1,2.5H71.2z M72.5,5L70,8h-1.7l1.7-3H72.5z"/>
	<path style="fill:#C4161C;" d="M78.3,6.4v2.9h2.3v1.8h-2.3v4.7c0,1.2,0.4,1.8,1.2,1.8c0.4,0,0.7,0,0.9-0.1l0,1.9
		c-0.4,0.1-1,0.2-1.8,0.2c-0.9,0-1.6-0.3-2.1-0.8c-0.5-0.6-0.8-1.4-0.8-2.8v-5h-1.4V9.3h1.4V7L78.3,6.4z"/>
	<path style="fill:#C4161C;" d="M82.4,12.5c0-1.2,0-2.3-0.1-3.2h2.2l0.1,1.8h0.1c0.5-1.3,1.6-2,2.6-2c0.2,0,0.4,0,0.6,0v2.4
		c-0.2,0-0.4-0.1-0.7-0.1c-1.1,0-1.9,0.7-2.2,1.9c0,0.2-0.1,0.5-0.1,0.8v5.3h-2.5V12.5z"/>
	<path style="fill:#C4161C;" d="M92,6.5c0,0.8-0.5,1.3-1.4,1.3c-0.8,0-1.3-0.6-1.3-1.3c0-0.8,0.6-1.4,1.4-1.4
		C91.4,5.1,92,5.7,92,6.5z M89.4,19.5V9.3h2.5v10.2H89.4z"/>
	<path style="fill:#C4161C;" d="M96.2,15.1c0.1,2,1.4,2.7,2.9,2.7c1,0,1.8-0.2,2.5-0.4l0.4,1.7c-0.8,0.3-2,0.6-3.3,0.6
		c-3.1,0-4.9-2-4.9-5.1c0-3,1.7-5.5,4.6-5.5s4.1,2.5,4.1,4.9c0,0.5,0,0.9-0.1,1.1H96.2z M100.2,13.3c0-1.2-0.4-2.5-1.9-2.5
		c-1.4,0-2,1.4-2.1,2.5H100.2z"/>
	<path style="fill:#C4161C;" d="M117.2,4.7v12c0,1,0,2.1,0.1,2.8h-2.2l-0.1-1.5h0c-0.5,1-1.6,1.7-3,1.7c-2.3,0-4-2.1-4-5.2
		c0-3.5,2-5.4,4.2-5.4c1.2,0,2.1,0.5,2.5,1.3h0V4.7H117.2z M114.7,13.5c0-0.2,0-0.5,0-0.7c-0.2-0.9-0.9-1.7-1.9-1.7
		c-1.5,0-2.3,1.5-2.3,3.4c0,1.9,0.8,3.3,2.2,3.3c0.9,0,1.7-0.6,1.9-1.7c0.1-0.2,0.1-0.5,0.1-0.7V13.5z"/>
	<path style="fill:#C4161C;" d="M121.6,15.1c0.1,2,1.4,2.7,2.9,2.7c1,0,1.8-0.2,2.5-0.4l0.4,1.7c-0.8,0.3-2,0.6-3.3,0.6
		c-3.1,0-4.9-2-4.9-5.1c0-3,1.7-5.5,4.6-5.5s4.1,2.5,4.1,4.9c0,0.5,0,0.9-0.1,1.1H121.6z M125.5,13.3c0-1.2-0.4-2.5-1.9-2.5
		c-1.4,0-2,1.4-2.1,2.5H125.5z"/>
	<path style="fill:#C4161C;" d="M136.7,6.4v2.9h2.3v1.8h-2.3v4.7c0,1.2,0.4,1.8,1.2,1.8c0.4,0,0.7,0,0.9-0.1l0,1.9
		c-0.4,0.1-1,0.2-1.8,0.2c-0.9,0-1.6-0.3-2.1-0.8c-0.5-0.6-0.8-1.4-0.8-2.8v-5h-1.4V9.3h1.4V7L136.7,6.4z"/>
	<path style="fill:#C4161C;" d="M142.5,9.3l1.6,5.5c0.2,0.7,0.4,1.4,0.5,2h0.1c0.1-0.5,0.3-1.3,0.5-2l1.4-5.5h2.6l-2.4,7.1
		c-1.2,3.3-2,5.2-3.2,6.3c-0.9,0.9-2,1.3-2.5,1.4l-0.6-2.1c0.4-0.1,1-0.4,1.5-0.8c0.5-0.4,0.9-0.9,1.3-1.6c0.1-0.2,0.1-0.3,0.1-0.5
		c0-0.1,0-0.3-0.1-0.5l-3.4-9.4H142.5z"/>
	<path style="fill:#C4161C;" d="M150.6,12.6c0-1.3,0-2.4-0.1-3.3h2.2l0.1,1.5h0c0.7-1.1,1.7-1.7,3.1-1.7c2.2,0,3.9,2.1,3.9,5.2
		c0,3.7-2.1,5.4-4.2,5.4c-1.2,0-2.1-0.5-2.5-1.3h0v5.2h-2.5V12.6z M153.1,15.4c0,0.3,0,0.5,0.1,0.8c0.3,1,1,1.6,1.9,1.6
		c1.5,0,2.3-1.4,2.3-3.4c0-1.9-0.8-3.3-2.2-3.3c-0.9,0-1.7,0.7-2,1.7c0,0.2-0.1,0.4-0.1,0.7V15.4z"/>
	<path style="fill:#C4161C;" d="M163.7,15.1c0.1,2,1.4,2.7,2.9,2.7c1,0,1.8-0.2,2.5-0.4l0.4,1.7c-0.8,0.3-2,0.6-3.3,0.6
		c-3.1,0-4.9-2-4.9-5.1c0-3,1.7-5.5,4.6-5.5s4.1,2.5,4.1,4.9c0,0.5,0,0.9-0.1,1.1H163.7z M167.7,13.3c0-1.2-0.4-2.5-1.9-2.5
		c-1.4,0-2,1.4-2.1,2.5H167.7z"/>
	<path style="fill:#C4161C;" d="M187.1,13.8c-0.1-1.7-0.2-3.9-0.2-5.7h-0.1c-0.4,1.7-0.9,3.5-1.5,5.2l-1.9,6h-1.8l-1.7-5.9
		c-0.5-1.7-1-3.6-1.3-5.3h0c0,1.8-0.1,3.9-0.2,5.8l-0.3,5.6h-2.3l0.9-14.2h3.1l1.7,5.7c0.5,1.7,0.9,3.3,1.2,4.9h0.1
		c0.3-1.6,0.8-3.2,1.3-4.9l1.8-5.7h3.1l0.8,14.2h-2.4L187.1,13.8z"/>
	<path style="fill:#C4161C;" d="M200.5,16.5c0,1.2,0,2.2,0.1,3h-2.2l-0.1-1.4h0c-0.4,0.7-1.4,1.6-3,1.6c-1.9,0-3.3-1.2-3.3-4.3V9.3
		h2.5V15c0,1.6,0.5,2.7,1.7,2.7c0.9,0,1.5-0.7,1.7-1.3c0.1-0.2,0.1-0.5,0.1-0.8V9.3h2.5V16.5z"/>
	<path style="fill:#C4161C;" d="M203.1,4.7h2.5v14.8h-2.5V4.7z"/>
	<path style="fill:#C4161C;" d="M211.1,6.4v2.9h2.3v1.8h-2.3v4.7c0,1.2,0.4,1.8,1.2,1.8c0.4,0,0.7,0,0.9-0.1l0,1.9
		c-0.4,0.1-1,0.2-1.8,0.2c-0.9,0-1.6-0.3-2.1-0.8c-0.5-0.6-0.8-1.4-0.8-2.8v-5h-1.4V9.3h1.4V7L211.1,6.4z"/>
	<path style="fill:#C4161C;" d="M217.8,6.5c0,0.8-0.5,1.3-1.4,1.3c-0.8,0-1.3-0.6-1.3-1.3c0-0.8,0.6-1.4,1.4-1.4
		C217.2,5.1,217.8,5.7,217.8,6.5z M215.2,19.5V9.3h2.5v10.2H215.2z"/>
	<path style="fill:#C4161C;" d="M220.3,5.6c0.9-0.2,2-0.3,3.6-0.3c1.8,0,3.1,0.4,4,1.1c0.8,0.7,1.3,1.8,1.3,3.1
		c0,1.4-0.4,2.4-1.2,3.2c-1,1-2.5,1.5-4.1,1.5c-0.4,0-0.8,0-1.1-0.1v5.4h-2.5V5.6z M222.8,12.2c0.3,0.1,0.6,0.1,1,0.1
		c1.8,0,2.9-1,2.9-2.6c0-1.5-0.9-2.4-2.6-2.4c-0.6,0-1,0-1.3,0.1V12.2z"/>
	<path style="fill:#C4161C;" d="M239.5,14.3c0,3.9-2.5,5.4-4.8,5.4c-2.7,0-4.7-1.9-4.7-5.3c0-3.4,2.1-5.4,4.8-5.4
		C237.6,9.1,239.5,11.1,239.5,14.3z M232.6,14.4c0,1.9,0.8,3.5,2.2,3.5c1.4,0,2.2-1.6,2.2-3.5c0-1.6-0.6-3.5-2.2-3.5
		C233.2,10.9,232.6,12.8,232.6,14.4z"/>
	<path style="fill:#C4161C;" d="M244.1,6.5c0,0.8-0.5,1.3-1.4,1.3c-0.8,0-1.3-0.6-1.3-1.3c0-0.8,0.6-1.4,1.4-1.4
		C243.6,5.1,244.1,5.7,244.1,6.5z M241.5,19.5V9.3h2.5v10.2H241.5z"/>
	<path style="fill:#C4161C;" d="M246.6,12.3c0-1.2,0-2.1-0.1-3h2.2l0.1,1.4h0.1c0.5-0.8,1.5-1.7,3-1.7c1.8,0,3.3,1.2,3.3,4.2v6.3
		h-2.5v-6c0-1.3-0.4-2.4-1.7-2.4c-0.9,0-1.5,0.6-1.8,1.4c-0.1,0.2-0.1,0.5-0.1,0.8v6.1h-2.5V12.3z"/>
	<path style="fill:#C4161C;" d="M260.5,6.4v2.9h2.3v1.8h-2.3v4.7c0,1.2,0.4,1.8,1.2,1.8c0.4,0,0.7,0,0.9-0.1l0,1.9
		c-0.4,0.1-1,0.2-1.8,0.2c-0.9,0-1.6-0.3-2.1-0.8c-0.5-0.6-0.8-1.4-0.8-2.8v-5h-1.4V9.3h1.4V7L260.5,6.4z"/>
</g>
<g style="enable-background:new    ;">
	<path style="fill:#C4161C;" d="M329.6,8.2L329.6,8.2l-2.5,1.2l-0.4-1.9l3.3-1.6h2.1v13.6h-2.4V8.2z"/>
	<path style="fill:#C4161C;" d="M349.4,9.3c0,0.7-0.1,1.6-0.1,3v5.8c0,2.2-0.4,3.6-1.4,4.5c-0.9,0.9-2.3,1.2-3.7,1.2
		c-1.2,0-2.4-0.3-3.2-0.7l0.5-1.9c0.6,0.3,1.6,0.7,2.7,0.7c1.6,0,2.6-0.9,2.6-3v-0.9h0c-0.5,0.8-1.4,1.4-2.6,1.4c-2.4,0-4-2.2-4-5
		c0-3.4,2-5.4,4.2-5.4c1.4,0,2.2,0.7,2.6,1.5h0l0.1-1.3H349.4z M346.8,13.3c0-0.3,0-0.5-0.1-0.7c-0.2-0.8-0.9-1.5-1.8-1.5
		c-1.3,0-2.2,1.3-2.2,3.4c0,1.9,0.8,3.2,2.2,3.2c0.8,0,1.5-0.5,1.8-1.4c0.1-0.3,0.1-0.6,0.1-0.9V13.3z"/>
	<path style="fill:#C4161C;" d="M353.7,15.1c0.1,2,1.4,2.7,2.9,2.7c1,0,1.8-0.2,2.5-0.4l0.4,1.7c-0.8,0.3-2,0.6-3.3,0.6
		c-3.1,0-4.9-2-4.9-5.1c0-3,1.7-5.5,4.6-5.5s4.1,2.5,4.1,4.9c0,0.5,0,0.9-0.1,1.1H353.7z M357.7,13.3c0-1.2-0.4-2.5-1.9-2.5
		c-1.4,0-2,1.4-2.1,2.5H357.7z M359,5l-2.5,3h-1.7l1.7-3H359z"/>
	<path style="fill:#C4161C;" d="M370.8,14.3c0,3.9-2.5,5.4-4.8,5.4c-2.7,0-4.7-1.9-4.7-5.3c0-3.4,2.1-5.4,4.8-5.4
		C369,9.1,370.8,11.1,370.8,14.3z M363.9,14.4c0,1.9,0.8,3.5,2.2,3.5c1.4,0,2.2-1.6,2.2-3.5c0-1.6-0.6-3.5-2.2-3.5
		C364.5,10.9,363.9,12.8,363.9,14.4z"/>
	<path style="fill:#C4161C;" d="M372.8,12.3c0-1.2,0-2.1-0.1-3h2.1l0.1,1.4h0.1c0.5-0.8,1.4-1.6,2.9-1.6c1.3,0,2.2,0.7,2.6,1.8h0
		c0.3-0.5,0.7-0.9,1.2-1.2c0.5-0.3,1.1-0.5,1.9-0.5c1.7,0,3.1,1.2,3.1,4.2v6.2h-2.4v-5.8c0-1.6-0.5-2.6-1.6-2.6
		c-0.8,0-1.4,0.6-1.6,1.3c-0.1,0.2-0.1,0.5-0.1,0.8v6.3h-2.4v-6.1c0-1.3-0.4-2.3-1.6-2.3c-0.8,0-1.4,0.7-1.7,1.4
		c-0.1,0.3-0.1,0.5-0.1,0.8v6.2h-2.4V12.3z"/>
	<path style="fill:#C4161C;" d="M391.2,15.1c0.1,2,1.4,2.7,2.9,2.7c1,0,1.8-0.2,2.5-0.4l0.4,1.7c-0.8,0.3-2,0.6-3.3,0.6
		c-3.1,0-4.9-2-4.9-5.1c0-3,1.7-5.5,4.6-5.5s4.1,2.5,4.1,4.9c0,0.5,0,0.9-0.1,1.1H391.2z M395.2,13.3c0-1.2-0.4-2.5-1.9-2.5
		c-1.4,0-2,1.4-2.1,2.5H395.2z M396.5,5L394,8h-1.7l1.7-3H396.5z"/>
	<path style="fill:#C4161C;" d="M402.3,6.4v2.9h2.3v1.8h-2.3v4.7c0,1.2,0.4,1.8,1.2,1.8c0.4,0,0.7,0,0.9-0.1l0,1.9
		c-0.4,0.1-1,0.2-1.8,0.2c-0.9,0-1.6-0.3-2.1-0.8c-0.5-0.6-0.8-1.4-0.8-2.8v-5h-1.4V9.3h1.4V7L402.3,6.4z"/>
	<path style="fill:#C4161C;" d="M406.4,12.5c0-1.2,0-2.3-0.1-3.2h2.2l0.1,1.8h0.1c0.5-1.3,1.6-2,2.6-2c0.2,0,0.4,0,0.6,0v2.4
		c-0.2,0-0.4-0.1-0.7-0.1c-1.1,0-1.9,0.7-2.2,1.9c0,0.2-0.1,0.5-0.1,0.8v5.3h-2.5V12.5z"/>
	<path style="fill:#C4161C;" d="M416,6.5c0,0.8-0.5,1.3-1.4,1.3c-0.8,0-1.3-0.6-1.3-1.3c0-0.8,0.6-1.4,1.4-1.4
		C415.4,5.1,416,5.7,416,6.5z M413.4,19.5V9.3h2.5v10.2H413.4z"/>
	<path style="fill:#C4161C;" d="M420.2,15.1c0.1,2,1.4,2.7,2.9,2.7c1,0,1.8-0.2,2.5-0.4l0.4,1.7c-0.8,0.3-2,0.6-3.3,0.6
		c-3.1,0-4.9-2-4.9-5.1c0-3,1.7-5.5,4.6-5.5s4.1,2.5,4.1,4.9c0,0.5,0,0.9-0.1,1.1H420.2z M424.2,13.3c0-1.2-0.4-2.5-1.9-2.5
		c-1.4,0-2,1.4-2.1,2.5H424.2z"/>
	<path style="fill:#C4161C;" d="M441.2,4.7v12c0,1,0,2.1,0.1,2.8h-2.2l-0.1-1.5h0c-0.5,1-1.6,1.7-3,1.7c-2.3,0-4-2.1-4-5.2
		c0-3.5,2-5.4,4.2-5.4c1.2,0,2.1,0.5,2.5,1.3h0V4.7H441.2z M438.7,13.5c0-0.2,0-0.5,0-0.7c-0.2-0.9-0.9-1.7-1.9-1.7
		c-1.5,0-2.3,1.5-2.3,3.4c0,1.9,0.8,3.3,2.2,3.3c0.9,0,1.7-0.6,1.9-1.7c0.1-0.2,0.1-0.5,0.1-0.7V13.5z"/>
	<path style="fill:#C4161C;" d="M445.6,15.1c0.1,2,1.4,2.7,2.9,2.7c1,0,1.8-0.2,2.5-0.4l0.4,1.7c-0.8,0.3-2,0.6-3.3,0.6
		c-3.1,0-4.9-2-4.9-5.1c0-3,1.7-5.5,4.6-5.5s4.1,2.5,4.1,4.9c0,0.5,0,0.9-0.1,1.1H445.6z M449.5,13.3c0-1.2-0.4-2.5-1.9-2.5
		c-1.4,0-2,1.4-2.1,2.5H449.5z"/>
	<path style="fill:#C4161C;" d="M460.7,6.4v2.9h2.3v1.8h-2.3v4.7c0,1.2,0.4,1.8,1.2,1.8c0.4,0,0.7,0,0.9-0.1l0,1.9
		c-0.4,0.1-1,0.2-1.8,0.2c-0.9,0-1.6-0.3-2.1-0.8c-0.5-0.6-0.8-1.4-0.8-2.8v-5h-1.4V9.3h1.4V7L460.7,6.4z"/>
	<path style="fill:#C4161C;" d="M466.5,9.3l1.6,5.5c0.2,0.7,0.4,1.4,0.5,2h0.1c0.1-0.5,0.3-1.3,0.5-2l1.4-5.5h2.6l-2.4,7.1
		c-1.2,3.3-2,5.2-3.2,6.3c-0.9,0.9-2,1.3-2.5,1.4l-0.6-2.1c0.4-0.1,1-0.4,1.5-0.8c0.5-0.4,0.9-0.9,1.3-1.6c0.1-0.2,0.1-0.3,0.1-0.5
		c0-0.1,0-0.3-0.1-0.5l-3.4-9.4H466.5z"/>
	<path style="fill:#C4161C;" d="M474.6,12.6c0-1.3,0-2.4-0.1-3.3h2.2l0.1,1.5h0c0.7-1.1,1.7-1.7,3.1-1.7c2.2,0,3.9,2.1,3.9,5.2
		c0,3.7-2.1,5.4-4.2,5.4c-1.2,0-2.1-0.5-2.5-1.3h0v5.2h-2.5V12.6z M477.1,15.4c0,0.3,0,0.5,0.1,0.8c0.3,1,1,1.6,1.9,1.6
		c1.5,0,2.3-1.4,2.3-3.4c0-1.9-0.8-3.3-2.2-3.3c-0.9,0-1.7,0.7-2,1.7c0,0.2-0.1,0.4-0.1,0.7V15.4z"/>
	<path style="fill:#C4161C;" d="M487.7,15.1c0.1,2,1.4,2.7,2.9,2.7c1,0,1.8-0.2,2.5-0.4l0.4,1.7c-0.8,0.3-2,0.6-3.3,0.6
		c-3.1,0-4.9-2-4.9-5.1c0-3,1.7-5.5,4.6-5.5c3,0,4.1,2.5,4.1,4.9c0,0.5,0,0.9-0.1,1.1H487.7z M491.7,13.3c0-1.2-0.4-2.5-1.9-2.5
		c-1.4,0-2,1.4-2.1,2.5H491.7z"/>
	<path style="fill:#C4161C;" d="M511.1,13.8c-0.1-1.7-0.2-3.9-0.2-5.7h-0.1c-0.4,1.7-0.9,3.5-1.5,5.2l-1.9,6h-1.8l-1.7-5.9
		c-0.5-1.7-1-3.6-1.3-5.3h0c0,1.8-0.1,3.9-0.2,5.8l-0.3,5.6h-2.3l0.9-14.2h3.1l1.7,5.7c0.5,1.7,0.9,3.3,1.2,4.9h0.1
		c0.3-1.6,0.8-3.2,1.3-4.9l1.8-5.7h3.1l0.8,14.2h-2.4L511.1,13.8z"/>
	<path style="fill:#C4161C;" d="M524.5,16.5c0,1.2,0,2.2,0.1,3h-2.2l-0.1-1.4h0c-0.4,0.7-1.4,1.6-3,1.6c-1.9,0-3.3-1.2-3.3-4.3V9.3
		h2.5V15c0,1.6,0.5,2.7,1.7,2.7c0.9,0,1.5-0.7,1.7-1.3c0.1-0.2,0.1-0.5,0.1-0.8V9.3h2.5V16.5z"/>
	<path style="fill:#C4161C;" d="M527.1,4.7h2.5v14.8h-2.5V4.7z"/>
	<path style="fill:#C4161C;" d="M535.1,6.4v2.9h2.3v1.8h-2.3v4.7c0,1.2,0.4,1.8,1.2,1.8c0.4,0,0.7,0,0.9-0.1l0,1.9
		c-0.4,0.1-1,0.2-1.8,0.2c-0.9,0-1.6-0.3-2.1-0.8c-0.5-0.6-0.8-1.4-0.8-2.8v-5h-1.4V9.3h1.4V7L535.1,6.4z"/>
	<path style="fill:#C4161C;" d="M541.8,6.5c0,0.8-0.5,1.3-1.4,1.3c-0.8,0-1.3-0.6-1.3-1.3c0-0.8,0.6-1.4,1.4-1.4
		C541.2,5.1,541.8,5.7,541.8,6.5z M539.2,19.5V9.3h2.5v10.2H539.2z"/>
	<path style="fill:#C4161C;" d="M544.3,5.4h2.5v12.1h5.2v2.1h-7.7V5.4z"/>
	<path style="fill:#C4161C;" d="M556.4,6.5c0,0.8-0.5,1.3-1.4,1.3c-0.8,0-1.3-0.6-1.3-1.3c0-0.8,0.6-1.4,1.4-1.4
		C555.8,5.1,556.4,5.7,556.4,6.5z M553.7,19.5V9.3h2.5v10.2H553.7z"/>
	<path style="fill:#C4161C;" d="M558.8,12.3c0-1.2,0-2.1-0.1-3h2.2l0.1,1.4h0.1c0.5-0.8,1.5-1.7,3-1.7c1.8,0,3.3,1.2,3.3,4.2v6.3
		h-2.5v-6c0-1.3-0.4-2.4-1.7-2.4c-0.9,0-1.5,0.6-1.8,1.4c-0.1,0.2-0.1,0.5-0.1,0.8v6.1h-2.5V12.3z"/>
	<path style="fill:#C4161C;" d="M571.7,15.1c0.1,2,1.4,2.7,2.9,2.7c1,0,1.8-0.2,2.5-0.4l0.4,1.7c-0.8,0.3-2,0.6-3.3,0.6
		c-3.1,0-4.9-2-4.9-5.1c0-3,1.7-5.5,4.6-5.5s4.1,2.5,4.1,4.9c0,0.5,0,0.9-0.1,1.1H571.7z M575.7,13.3c0-1.2-0.4-2.5-1.9-2.5
		c-1.4,0-2,1.4-2.1,2.5H575.7z"/>
	<path style="fill:#C4161C;" d="M580,16.8c0.7,0.4,1.9,0.8,3,0.8c1.6,0,2.5-0.8,2.5-2c0-1.1-0.7-1.7-2.3-2.4
		c-2.1-0.9-3.5-2.2-3.5-4.1c0-2.3,1.8-4,4.7-4c1.3,0,2.4,0.3,3,0.6l-0.5,2.1c-0.5-0.3-1.3-0.6-2.5-0.6c-1.5,0-2.2,0.9-2.2,1.7
		c0,1.1,0.7,1.6,2.5,2.4c2.3,1,3.3,2.3,3.3,4.2c0,2.4-1.7,4.2-5.1,4.2c-1.4,0-2.8-0.4-3.5-0.8L580,16.8z"/>
	<path style="fill:#C4161C;" d="M592.8,6.4v2.9h2.3v1.8h-2.3v4.7c0,1.2,0.4,1.8,1.2,1.8c0.4,0,0.7,0,0.9-0.1l0,1.9
		c-0.4,0.1-1,0.2-1.8,0.2c-0.9,0-1.6-0.3-2.1-0.8c-0.5-0.6-0.8-1.4-0.8-2.8v-5H589V9.3h1.4V7L592.8,6.4z"/>
	<path style="fill:#C4161C;" d="M596.9,12.5c0-1.2,0-2.3-0.1-3.2h2.2l0.1,1.8h0.1c0.5-1.3,1.6-2,2.6-2c0.2,0,0.4,0,0.6,0v2.4
		c-0.2,0-0.4-0.1-0.7-0.1c-1.1,0-1.9,0.7-2.2,1.9c0,0.2-0.1,0.5-0.1,0.8v5.3h-2.5V12.5z"/>
	<path style="fill:#C4161C;" d="M606.5,6.5c0,0.8-0.5,1.3-1.4,1.3c-0.8,0-1.3-0.6-1.3-1.3c0-0.8,0.6-1.4,1.4-1.4
		C605.9,5.1,606.5,5.7,606.5,6.5z M603.9,19.5V9.3h2.5v10.2H603.9z"/>
	<path style="fill:#C4161C;" d="M608.9,12.3c0-1.2,0-2.1-0.1-3h2.2l0.1,1.4h0.1c0.5-0.8,1.5-1.7,3-1.7c1.8,0,3.3,1.2,3.3,4.2v6.3
		H615v-6c0-1.3-0.4-2.4-1.7-2.4c-0.9,0-1.5,0.6-1.8,1.4c-0.1,0.2-0.1,0.5-0.1,0.8v6.1h-2.5V12.3z"/>
	<path style="fill:#C4161C;" d="M628.7,9.3c0,0.7-0.1,1.6-0.1,3v5.8c0,2.2-0.4,3.6-1.4,4.5c-0.9,0.9-2.3,1.2-3.7,1.2
		c-1.2,0-2.4-0.3-3.2-0.7l0.5-1.9c0.6,0.3,1.6,0.7,2.7,0.7c1.6,0,2.6-0.9,2.6-3v-0.9h0c-0.5,0.8-1.4,1.4-2.6,1.4c-2.4,0-4-2.2-4-5
		c0-3.4,2-5.4,4.2-5.4c1.4,0,2.2,0.7,2.6,1.5h0l0.1-1.3H628.7z M626.1,13.3c0-0.3,0-0.5-0.1-0.7c-0.2-0.8-0.9-1.5-1.8-1.5
		c-1.3,0-2.2,1.3-2.2,3.4c0,1.9,0.8,3.2,2.2,3.2c0.8,0,1.5-0.5,1.8-1.4c0.1-0.3,0.1-0.6,0.1-0.9V13.3z"/>
</g>
<g style="enable-background:new    ;">
	<path style="fill:#C4161C;" d="M653.6,8.2L653.6,8.2l-2.5,1.2l-0.4-1.9l3.3-1.6h2.1v13.6h-2.4V8.2z"/>
	<path style="fill:#C4161C;" d="M673.4,9.3c0,0.7-0.1,1.6-0.1,3v5.8c0,2.2-0.4,3.6-1.4,4.5c-0.9,0.9-2.3,1.2-3.7,1.2
		c-1.2,0-2.4-0.3-3.2-0.7l0.5-1.9c0.6,0.3,1.6,0.7,2.7,0.7c1.6,0,2.6-0.9,2.6-3v-0.9h0c-0.5,0.8-1.4,1.4-2.6,1.4c-2.4,0-4-2.2-4-5
		c0-3.4,2-5.4,4.2-5.4c1.4,0,2.2,0.7,2.6,1.5h0l0.1-1.3H673.4z M670.8,13.3c0-0.3,0-0.5-0.1-0.7c-0.2-0.8-0.9-1.5-1.8-1.5
		c-1.3,0-2.2,1.3-2.2,3.4c0,1.9,0.8,3.2,2.2,3.2c0.8,0,1.5-0.5,1.8-1.4c0.1-0.3,0.1-0.6,0.1-0.9V13.3z"/>
	<path style="fill:#C4161C;" d="M677.7,15.1c0.1,2,1.4,2.7,2.9,2.7c1,0,1.8-0.2,2.5-0.4l0.4,1.7c-0.8,0.3-2,0.6-3.3,0.6
		c-3.1,0-4.9-2-4.9-5.1c0-3,1.7-5.5,4.6-5.5s4.1,2.5,4.1,4.9c0,0.5,0,0.9-0.1,1.1H677.7z M681.7,13.3c0-1.2-0.4-2.5-1.9-2.5
		c-1.4,0-2,1.4-2.1,2.5H681.7z M683,5l-2.5,3h-1.7l1.7-3H683z"/>
	<path style="fill:#C4161C;" d="M694.8,14.3c0,3.9-2.5,5.4-4.8,5.4c-2.7,0-4.7-1.9-4.7-5.3c0-3.4,2.1-5.4,4.8-5.4
		C693,9.1,694.8,11.1,694.8,14.3z M687.9,14.4c0,1.9,0.8,3.5,2.2,3.5c1.4,0,2.2-1.6,2.2-3.5c0-1.6-0.6-3.5-2.2-3.5
		C688.5,10.9,687.9,12.8,687.9,14.4z"/>
	<path style="fill:#C4161C;" d="M696.8,12.3c0-1.2,0-2.1-0.1-3h2.1l0.1,1.4h0.1c0.5-0.8,1.4-1.6,2.9-1.6c1.3,0,2.2,0.7,2.6,1.8h0
		c0.3-0.5,0.7-0.9,1.2-1.2c0.5-0.3,1.1-0.5,1.9-0.5c1.7,0,3.1,1.2,3.1,4.2v6.2h-2.4v-5.8c0-1.6-0.5-2.6-1.6-2.6
		c-0.8,0-1.4,0.6-1.6,1.3c-0.1,0.2-0.1,0.5-0.1,0.8v6.3h-2.4v-6.1c0-1.3-0.4-2.3-1.6-2.3c-0.8,0-1.4,0.7-1.7,1.4
		c-0.1,0.3-0.1,0.5-0.1,0.8v6.2h-2.4V12.3z"/>
	<path style="fill:#C4161C;" d="M715.2,15.1c0.1,2,1.4,2.7,2.9,2.7c1,0,1.8-0.2,2.5-0.4l0.4,1.7c-0.8,0.3-2,0.6-3.3,0.6
		c-3.1,0-4.9-2-4.9-5.1c0-3,1.7-5.5,4.6-5.5s4.1,2.5,4.1,4.9c0,0.5,0,0.9-0.1,1.1H715.2z M719.2,13.3c0-1.2-0.4-2.5-1.9-2.5
		c-1.4,0-2,1.4-2.1,2.5H719.2z M720.5,5L718,8h-1.7l1.7-3H720.5z"/>
	<path style="fill:#C4161C;" d="M726.3,6.4v2.9h2.3v1.8h-2.3v4.7c0,1.2,0.4,1.8,1.2,1.8c0.4,0,0.7,0,0.9-0.1l0,1.9
		c-0.4,0.1-1,0.2-1.8,0.2c-0.9,0-1.6-0.3-2.1-0.8c-0.5-0.6-0.8-1.4-0.8-2.8v-5h-1.4V9.3h1.4V7L726.3,6.4z"/>
	<path style="fill:#C4161C;" d="M730.4,12.5c0-1.2,0-2.3-0.1-3.2h2.2l0.1,1.8h0.1c0.5-1.3,1.6-2,2.6-2c0.2,0,0.4,0,0.6,0v2.4
		c-0.2,0-0.4-0.1-0.7-0.1c-1.1,0-1.9,0.7-2.2,1.9c0,0.2-0.1,0.5-0.1,0.8v5.3h-2.5V12.5z"/>
	<path style="fill:#C4161C;" d="M740,6.5c0,0.8-0.5,1.3-1.4,1.3c-0.8,0-1.3-0.6-1.3-1.3c0-0.8,0.6-1.4,1.4-1.4
		C739.4,5.1,740,5.7,740,6.5z M737.4,19.5V9.3h2.5v10.2H737.4z"/>
	<path style="fill:#C4161C;" d="M744.2,15.1c0.1,2,1.4,2.7,2.9,2.7c1,0,1.8-0.2,2.5-0.4l0.4,1.7c-0.8,0.3-2,0.6-3.3,0.6
		c-3.1,0-4.9-2-4.9-5.1c0-3,1.7-5.5,4.6-5.5s4.1,2.5,4.1,4.9c0,0.5,0,0.9-0.1,1.1H744.2z M748.2,13.3c0-1.2-0.4-2.5-1.9-2.5
		c-1.4,0-2,1.4-2.1,2.5H748.2z"/>
	<path style="fill:#C4161C;" d="M765.2,4.7v12c0,1,0,2.1,0.1,2.8h-2.2l-0.1-1.5h0c-0.5,1-1.6,1.7-3,1.7c-2.3,0-4-2.1-4-5.2
		c0-3.5,2-5.4,4.2-5.4c1.2,0,2.1,0.5,2.5,1.3h0V4.7H765.2z M762.7,13.5c0-0.2,0-0.5,0-0.7c-0.2-0.9-0.9-1.7-1.9-1.7
		c-1.5,0-2.3,1.5-2.3,3.4c0,1.9,0.8,3.3,2.2,3.3c0.9,0,1.7-0.6,1.9-1.7c0.1-0.2,0.1-0.5,0.1-0.7V13.5z"/>
	<path style="fill:#C4161C;" d="M769.6,15.1c0.1,2,1.4,2.7,2.9,2.7c1,0,1.8-0.2,2.5-0.4l0.4,1.7c-0.8,0.3-2,0.6-3.3,0.6
		c-3.1,0-4.9-2-4.9-5.1c0-3,1.7-5.5,4.6-5.5s4.1,2.5,4.1,4.9c0,0.5,0,0.9-0.1,1.1H769.6z M773.5,13.3c0-1.2-0.4-2.5-1.9-2.5
		c-1.4,0-2,1.4-2.1,2.5H773.5z"/>
	<path style="fill:#C4161C;" d="M784.7,6.4v2.9h2.3v1.8h-2.3v4.7c0,1.2,0.4,1.8,1.2,1.8c0.4,0,0.7,0,0.9-0.1l0,1.9
		c-0.4,0.1-1,0.2-1.8,0.2c-0.9,0-1.6-0.3-2.1-0.8c-0.5-0.6-0.8-1.4-0.8-2.8v-5h-1.4V9.3h1.4V7L784.7,6.4z"/>
	<path style="fill:#C4161C;" d="M790.5,9.3l1.6,5.5c0.2,0.7,0.4,1.4,0.5,2h0.1c0.1-0.5,0.3-1.3,0.5-2l1.4-5.5h2.6l-2.4,7.1
		c-1.2,3.3-2,5.2-3.2,6.3c-0.9,0.9-2,1.3-2.5,1.4l-0.6-2.1c0.4-0.1,1-0.4,1.5-0.8c0.5-0.4,0.9-0.9,1.3-1.6c0.1-0.2,0.1-0.3,0.1-0.5
		c0-0.1,0-0.3-0.1-0.5l-3.4-9.4H790.5z"/>
	<path style="fill:#C4161C;" d="M798.6,12.6c0-1.3,0-2.4-0.1-3.3h2.2l0.1,1.5h0c0.7-1.1,1.7-1.7,3.1-1.7c2.2,0,3.9,2.1,3.9,5.2
		c0,3.7-2.1,5.4-4.2,5.4c-1.2,0-2.1-0.5-2.5-1.3h0v5.2h-2.5V12.6z M801.1,15.4c0,0.3,0,0.5,0.1,0.8c0.3,1,1,1.6,1.9,1.6
		c1.5,0,2.3-1.4,2.3-3.4c0-1.9-0.8-3.3-2.2-3.3c-0.9,0-1.7,0.7-2,1.7c0,0.2-0.1,0.4-0.1,0.7V15.4z"/>
	<path style="fill:#C4161C;" d="M811.7,15.1c0.1,2,1.4,2.7,2.9,2.7c1,0,1.8-0.2,2.5-0.4l0.4,1.7c-0.8,0.3-2,0.6-3.3,0.6
		c-3.1,0-4.9-2-4.9-5.1c0-3,1.7-5.5,4.6-5.5c3,0,4.1,2.5,4.1,4.9c0,0.5,0,0.9-0.1,1.1H811.7z M815.7,13.3c0-1.2-0.4-2.5-1.9-2.5
		c-1.4,0-2,1.4-2.1,2.5H815.7z"/>
	<path style="fill:#C4161C;" d="M835.1,13.8c-0.1-1.7-0.2-3.9-0.2-5.7h-0.1c-0.4,1.7-0.9,3.5-1.5,5.2l-1.9,6h-1.8l-1.7-5.9
		c-0.5-1.7-1-3.6-1.3-5.3h0c0,1.8-0.1,3.9-0.2,5.8l-0.3,5.6h-2.3l0.9-14.2h3.1l1.7,5.7c0.5,1.7,0.9,3.3,1.2,4.9h0.1
		c0.3-1.6,0.8-3.2,1.3-4.9l1.8-5.7h3.1l0.8,14.2h-2.4L835.1,13.8z"/>
	<path style="fill:#C4161C;" d="M848.5,16.5c0,1.2,0,2.2,0.1,3h-2.2l-0.1-1.4h0c-0.4,0.7-1.4,1.6-3,1.6c-1.9,0-3.3-1.2-3.3-4.3V9.3
		h2.5V15c0,1.6,0.5,2.7,1.7,2.7c0.9,0,1.5-0.7,1.7-1.3c0.1-0.2,0.1-0.5,0.1-0.8V9.3h2.5V16.5z"/>
	<path style="fill:#C4161C;" d="M851.1,4.7h2.5v14.8h-2.5V4.7z"/>
	<path style="fill:#C4161C;" d="M859.1,6.4v2.9h2.3v1.8h-2.3v4.7c0,1.2,0.4,1.8,1.2,1.8c0.4,0,0.7,0,0.9-0.1l0,1.9
		c-0.4,0.1-1,0.2-1.8,0.2c-0.9,0-1.6-0.3-2.1-0.8c-0.5-0.6-0.8-1.4-0.8-2.8v-5h-1.4V9.3h1.4V7L859.1,6.4z"/>
	<path style="fill:#C4161C;" d="M865.8,6.5c0,0.8-0.5,1.3-1.4,1.3c-0.8,0-1.3-0.6-1.3-1.3c0-0.8,0.6-1.4,1.4-1.4
		C865.2,5.1,865.8,5.7,865.8,6.5z M863.2,19.5V9.3h2.5v10.2H863.2z"/>
	<path style="fill:#C4161C;" d="M868.3,5.6c0.9-0.2,2-0.3,3.6-0.3c1.8,0,3.1,0.4,4,1.1c0.8,0.7,1.3,1.8,1.3,3.1
		c0,1.4-0.4,2.4-1.2,3.2c-1,1-2.5,1.5-4.1,1.5c-0.4,0-0.8,0-1.1-0.1v5.4h-2.5V5.6z M870.8,12.2c0.3,0.1,0.6,0.1,1,0.1
		c1.8,0,2.9-1,2.9-2.6c0-1.5-0.9-2.4-2.6-2.4c-0.6,0-1,0-1.3,0.1V12.2z"/>
	<path style="fill:#C4161C;" d="M887.5,14.3c0,3.9-2.5,5.4-4.8,5.4c-2.7,0-4.7-1.9-4.7-5.3c0-3.4,2.1-5.4,4.8-5.4
		C885.6,9.1,887.5,11.1,887.5,14.3z M880.6,14.4c0,1.9,0.8,3.5,2.2,3.5c1.4,0,2.2-1.6,2.2-3.5c0-1.6-0.6-3.5-2.2-3.5
		C881.2,10.9,880.6,12.8,880.6,14.4z"/>
	<path style="fill:#C4161C;" d="M889.5,4.7h2.5v14.8h-2.5V4.7z"/>
	<path style="fill:#C4161C;" d="M896.2,9.3l1.6,5.5c0.2,0.7,0.4,1.4,0.5,2h0.1c0.1-0.5,0.3-1.3,0.5-2l1.4-5.5h2.6l-2.4,7.1
		c-1.2,3.3-2,5.2-3.2,6.3c-0.9,0.9-2,1.3-2.5,1.4l-0.6-2.1c0.4-0.1,1-0.4,1.5-0.8c0.5-0.4,0.9-0.9,1.3-1.6c0.1-0.2,0.1-0.3,0.1-0.5
		c0-0.1,0-0.3-0.1-0.5l-3.4-9.4H896.2z"/>
	<path style="fill:#C4161C;" d="M912.7,9.3c0,0.7-0.1,1.6-0.1,3v5.8c0,2.2-0.4,3.6-1.4,4.5c-0.9,0.9-2.3,1.2-3.7,1.2
		c-1.2,0-2.4-0.3-3.2-0.7l0.5-1.9c0.6,0.3,1.6,0.7,2.7,0.7c1.6,0,2.6-0.9,2.6-3v-0.9h0c-0.5,0.8-1.4,1.4-2.6,1.4c-2.4,0-4-2.2-4-5
		c0-3.4,2-5.4,4.2-5.4c1.4,0,2.2,0.7,2.6,1.5h0l0.1-1.3H912.7z M910.1,13.3c0-0.3,0-0.5-0.1-0.7c-0.2-0.8-0.9-1.5-1.8-1.5
		c-1.3,0-2.2,1.3-2.2,3.4c0,1.9,0.8,3.2,2.2,3.2c0.8,0,1.5-0.5,1.8-1.4c0.1-0.3,0.1-0.6,0.1-0.9V13.3z"/>
	<path style="fill:#C4161C;" d="M924,14.3c0,3.9-2.5,5.4-4.8,5.4c-2.7,0-4.7-1.9-4.7-5.3c0-3.4,2.1-5.4,4.8-5.4
		C922.2,9.1,924,11.1,924,14.3z M917.1,14.4c0,1.9,0.8,3.5,2.2,3.5c1.4,0,2.2-1.6,2.2-3.5c0-1.6-0.6-3.5-2.2-3.5
		C917.7,10.9,917.1,12.8,917.1,14.4z"/>
	<path style="fill:#C4161C;" d="M926,12.3c0-1.2,0-2.1-0.1-3h2.2l0.1,1.4h0.1c0.5-0.8,1.5-1.7,3-1.7c1.8,0,3.3,1.2,3.3,4.2v6.3h-2.5
		v-6c0-1.3-0.4-2.4-1.7-2.4c-0.9,0-1.5,0.6-1.8,1.4c-0.1,0.2-0.1,0.5-0.1,0.8v6.1H926V12.3z"/>
</g>
<circle style="fill:#C4161C;" cx="121.9" cy="109.3" r="5"/>
<circle style="fill:#C4161C;" cx="144" cy="126.1" r="5"/>
<circle style="fill:#C4161C;" cx="173.8" cy="121.1" r="5"/>
<circle style="fill:#C4161C;" cx="366.5" cy="65" r="5"/>
<circle style="fill:#C4161C;" cx="388.6" cy="81.8" r="5"/>
<circle style="fill:#C4161C;" cx="418.4" cy="86.8" r="5"/>
<circle style="fill:#C4161C;" cx="447.8" cy="96.8" r="5"/>
<circle style="fill:#C4161C;" cx="466.1" cy="114.3" r="5"/>
<circle style="fill:#C4161C;" cx="690" cy="70" r="5"/>
<circle style="fill:#C4161C;" cx="697.5" cy="89.7" r="5"/>
<circle style="fill:#C4161C;" cx="746" cy="84.7" r="5"/>
<circle style="fill:#C4161C;" cx="736" cy="52" r="5"/>
<circle style="fill:#C4161C;" cx="813.5" cy="70" r="5"/>
<circle style="fill:#C4161C;" cx="818.5" cy="99.7" r="5"/>
<circle style="fill:#C4161C;" cx="783" cy="131.6" r="5"/>
<circle style="fill:#C4161C;" cx="780.5" cy="171.3" r="5"/>
<circle style="fill:#C4161C;" cx="864" cy="201.7" r="5"/>
<circle style="fill:#C4161C;" cx="917.9" cy="161.3" r="5"/>
<circle style="fill:#C4161C;" cx="922.9" cy="96.8" r="5"/>
<circle style="fill:#C4161C;" cx="894.9" cy="42" r="5"/>
<circle style="fill:#C4161C;" cx="832.9" cy="42" r="5"/>
<circle style="fill:#C4161C;" cx="859" cy="114.3" r="5"/>
<circle style="fill:#C4161C;" cx="841" cy="136.6" r="5"/>
<circle style="fill:#C4161C;" cx="884.9" cy="126.6" r="5"/>
<circle style="fill:#C4161C;" cx="499.7" cy="151.3" r="5"/>
<circle style="fill:#C4161C;" cx="518.8" cy="161.3" r="5"/>
<circle style="fill:#C4161C;" cx="540.9" cy="166.3" r="5"/>
<circle style="fill:#C4161C;" cx="562.3" cy="176.3" r="5"/>
<circle style="fill:#C4161C;" cx="576.1" cy="196.7" r="5"/>
<polyline style="fill:none;stroke:#C4161C;stroke-width:3;stroke-miterlimit:10;" points="366.5,65 388.6,81.8 418.4,86.8 
	447.8,96.8 466.1,114.3 "/>
<polyline style="fill:none;stroke:#C4161C;stroke-width:3;stroke-miterlimit:10;" points="499.7,151.3 518.8,161.3 540.9,166.3 
	562.3,176.3 576.1,196.7 "/>
</svg>
