<?xml version="1.0" encoding="UTF-8" standalone="no"?>
<svg
   width="700"
   height="400"
   viewBox="0 0 185.20833 105.83333"
   version="1.1"
   id="svg5"
   inkscape:version="1.2.2 (1:1.2.2+202212051552+b0a8486541)"
   sodipodi:docname="distance-directe.svg"
   xmlns:inkscape="http://www.inkscape.org/namespaces/inkscape"
   xmlns:sodipodi="http://sodipodi.sourceforge.net/DTD/sodipodi-0.dtd"
   xmlns="http://www.w3.org/2000/svg"
   xmlns:svg="http://www.w3.org/2000/svg">
  <sodipodi:namedview
     id="namedview7"
     pagecolor="#ffffff"
     bordercolor="#666666"
     borderopacity="1.0"
     inkscape:showpageshadow="2"
     inkscape:pageopacity="0.0"
     inkscape:pagecheckerboard="0"
     inkscape:deskcolor="#d1d1d1"
     inkscape:document-units="px"
     showgrid="false"
     inkscape:zoom="1.2938725"
     inkscape:cx="386.43685"
     inkscape:cy="204.42509"
     inkscape:window-width="2023"
     inkscape:window-height="1243"
     inkscape:window-x="678"
     inkscape:window-y="94"
     inkscape:window-maximized="0"
     inkscape:current-layer="layer1" />
  <defs
     id="defs2" />
  <g
     inkscape:label="Layer 1"
     inkscape:groupmode="layer"
     id="layer1">
    <path
       style="fill:none;stroke:#7521bf;stroke-width:0.528747;stroke-linecap:butt;stroke-linejoin:miter;stroke-dasharray:none;stroke-opacity:1"
       d="M 25.606544,91.963746 H 155.26027 V 16.139652"
       id="path1292" />
    <path
       style="fill:none;stroke:#498d08;stroke-width:0.496546;stroke-linecap:butt;stroke-linejoin:miter;stroke-dasharray:none;stroke-opacity:1"
       d="m 3.0619612,76.750329 c 0.823202,0.737263 1.532097,1.55971 2.263901,2.364936 0.194833,0.214379 0.36302,0.449851 0.584554,0.643099 0.295734,0.257971 0.652254,0.456579 0.959559,0.70385 1.708411,1.374653 0.253239,0.340748 1.979221,1.736459 0.304567,0.246287 0.630437,0.4715 0.953187,0.699141 0.01424,0.01004 1.1443488,0.753419 1.1597148,0.765012 0.155283,0.11716 0.267428,0.277258 0.433854,0.381896 0.175428,0.1103 0.416228,0.129636 0.578471,0.254598 0.232297,0.178918 0.36021,0.44437 0.578472,0.636494 0.957539,0.842868 0.225223,-0.06761 1.012326,0.763794 0.11127,0.117533 0.176123,0.265734 0.289236,0.381895 0.177467,0.18225 0.385648,0.339466 0.578472,0.509197 0.192824,0.169731 0.385648,0.339463 0.578471,0.509196 0.385649,0.339462 0.746498,0.702258 1.156945,1.01839 0.362786,0.279421 0.790937,0.487642 1.156944,0.763792 0.155283,0.11716 0.289236,0.254598 0.433853,0.381898 0.587813,0.517416 1.129344,1.105136 1.908148,1.416782 0.34146,0.136638 3.108971,0.882839 3.356894,0.926125 1.218116,0.212677 2.393572,0.159885 3.623562,0.159885 0.528459,0 1.056917,0 1.585379,0 0.352646,0 0.706305,0.02347 1.057942,0 0.297699,-0.01987 0.585782,-0.109702 0.88348,-0.129567 0.351699,-0.02347 0.706249,0.02136 1.05812,0 0.431842,-0.02621 0.85723,-0.109536 1.288481,-0.142419 0.889933,-0.06786 1.791958,-0.03352 2.67365,-0.15969 0.02963,-0.0042 3.648018,-0.965446 3.683114,-0.97318 3.124024,-0.688335 0.543331,-0.01507 3.658773,-0.484083 0.392056,-0.05902 0.754609,-0.234883 1.148028,-0.286408 0.342515,-0.04485 0.697201,0.04968 1.038859,0 0.258093,-0.03752 0.476132,-0.196209 0.728457,-0.25695 0.02852,-0.0069 1.723677,-0.250676 1.746008,-0.254598 0.39865,-0.07006 1.123712,-0.264023 1.451475,-0.384238 0.497503,-0.182465 0.964122,-0.424329 1.446181,-0.636493 0.192824,-0.08486 0.385647,-0.169732 0.578471,-0.254596 0.192825,-0.08487 0.395657,-0.154022 0.578472,-0.254598 0.204393,-0.112448 0.385647,-0.254598 0.578473,-0.381898 0.192823,-0.127298 0.397078,-0.242185 0.578469,-0.381896 0.205225,-0.158066 0.360317,-0.365174 0.578474,-0.509196 0.172465,-0.113858 0.390044,-0.162399 0.578472,-0.254596 0.247043,-0.120881 0.491893,-0.246063 0.72699,-0.384174 0.201588,-0.118423 0.387486,-0.256331 0.581316,-0.384398 0.192767,-0.127365 0.397077,-0.242184 0.578472,-0.381897 0.205223,-0.158064 0.365533,-0.359246 0.57847,-0.509194 0.271446,-0.191149 0.582929,-0.333724 0.867709,-0.509196 0.19746,-0.121668 0.377922,-0.264209 0.578473,-0.381896 0.08968,-0.05263 0.199547,-0.07466 0.289234,-0.127301 0.401097,-0.235373 0.771296,-0.509193 1.156944,-0.763791 0.192824,-0.1273 0.397079,-0.242186 0.578471,-0.381896 0.205224,-0.158066 0.37317,-0.351211 0.578473,-0.509196 0.183569,-0.14126 0.392752,-0.254514 0.585215,-0.38628 0.743236,-0.508835 0.651673,-0.519235 1.457479,-0.898683 0.447708,-0.210821 0.93015,-0.365192 1.362397,-0.599689 0.519231,-0.281685 1.395051,-0.936904 1.936505,-1.307112 0.571777,-0.390938 1.166792,-0.755602 1.738241,-1.146934 0.246074,-0.168511 0.474955,-0.356914 0.730312,-0.51436 1.117617,-0.689109 0.370552,-0.04835 1.458095,-0.898995 0.204962,-0.160317 0.376684,-0.351671 0.581648,-0.511985 0.01905,-0.01489 1.436695,-1.010253 1.458522,-1.026493 0.420944,-0.313246 0.814945,-0.654595 1.24611,-0.956879 0.615028,-0.431187 2.445586,-1.493187 2.950652,-1.73287 0.740184,-0.351258 1.539269,-0.597892 2.291028,-0.929558 0.555985,-0.245298 1.073429,-0.5547 1.629369,-0.800078 0.520778,-0.229859 1.088792,-0.374128 1.597436,-0.624156 0.875894,-0.430553 1.937898,-1.327536 2.646269,-1.873773 0.553405,-0.426743 2.844242,-2.185153 3.276076,-2.542209 0.4508,-0.372735 0.86872,-0.775134 1.304971,-1.16105 0.505203,-0.446915 1.028952,-0.87795 1.519382,-1.337431 0.81327,-0.761924 3.66083,-3.675626 4.0894,-4.137033 0.30861,-0.332266 0.54582,-0.712677 0.85332,-1.045738 0.17804,-0.192839 0.41116,-0.341508 0.59884,-0.527122 0.20746,-0.205162 0.37755,-0.438078 0.58478,-0.643416 0.18111,-0.179454 0.42213,-0.312526 0.57847,-0.509196 1.46812,-1.84685 -0.81519,0.381069 1.22364,-1.596713 0.083,-0.08056 1.47377,-1.302873 1.55899,-1.377887 0.19282,-0.169733 0.37325,-0.351131 0.57847,-0.509196 0.181387,-0.139711 0.399307,-0.239965 0.578467,-0.381896 0.30403,-0.240865 0.57848,-0.509196 0.86771,-0.763794 0.38565,-0.339463 0.77129,-0.678927 1.15694,-1.01839 0.19283,-0.169731 0.37325,-0.35113 0.57848,-0.509196 0.18138,-0.139711 0.39547,-0.243821 0.57846,-0.381896 0.15529,-0.117161 0.27675,-0.266645 0.43386,-0.381896 0.13352,-0.09795 0.29241,-0.165671 0.43386,-0.254598 0.19613,-0.12332 0.38564,-0.254598 0.57846,-0.381896 0.36128,-0.238507 0.88733,-0.613084 1.30156,-0.763794 0.33561,-0.122103 0.69864,-0.174767 1.04787,-0.262413 1.91036,-0.479441 0.62672,-0.181338 3.50734,-0.738528 0.53908,-0.104272 1.09039,-0.168647 1.61669,-0.314998 0.6223,-0.173043 1.21186,-0.426693 1.81779,-0.640036 1.31976,-0.464683 2.07844,-0.678713 3.27389,-1.275562 0.0402,-0.02005 1.80111,-1.060355 1.85799,-1.090321 0.51191,-0.26973 1.04168,-0.512288 1.56252,-0.768432 0.65677,-0.346865 1.31353,-0.693731 1.9703,-1.040598 1.49489,-0.789519 2.18868,-1.181035 3.68824,-1.883321 1.56912,-0.734864 1.20379,-0.397214 2.59228,-1.40773 0.21016,-0.152953 0.38565,-0.339465 0.57848,-0.509197 0.19282,-0.169731 0.38564,-0.339462 0.57847,-0.509194 0.14462,-0.127299 0.30076,-0.24521 0.43386,-0.381897 0.6198,-0.636515 0.30017,-0.535068 1.18033,-1.166279 0.29011,-0.208056 0.62272,-0.36543 0.93408,-0.548145 0.48154,-0.317905 0.98613,-0.610423 1.44463,-0.953716 0.3493,-0.261534 0.63502,-0.58326 0.97278,-0.856284 0.31157,-0.251853 0.66176,-0.464946 0.97333,-0.716801 0.33787,-0.273112 0.64873,-0.571035 0.97309,-0.856556 0.1981,-0.174369 0.40808,-0.338874 0.59428,-0.523111 2.48401,-2.457696 -2.48711,2.199963 1.74482,-1.793197 0.466,-0.439704 0.96612,-0.850403 1.44917,-1.275607 0.19282,-0.169732 0.3989,-0.328548 0.57847,-0.509195 0.31744,-0.31934 0.55027,-0.69905 0.86771,-1.018391 0.17957,-0.180646 0.3989,-0.328548 0.57847,-0.509195 0.15872,-0.15967 0.27513,-0.349525 0.43386,-0.509195 0.17956,-0.180646 0.401,-0.326946 0.57847,-0.509196 1.03926,-1.067274 -0.57047,0.409208 0.57847,-0.891091 0.0852,-0.09642 1.14663,-0.992176 1.30156,-1.14569 0.52913,-0.524313 0.94408,-1.124797 1.45269,-1.662045 0.0873,-0.0922 0.20744,-0.158582 0.28924,-0.254597 0.0647,-0.07591 0.0848,-0.175651 0.14462,-0.254598 0.0378,-0.04994 0.11398,-0.0737 0.14461,-0.127299 0.0428,-0.07487 -0.0523,-0.1814 0,-0.25142 0.0711,-0.09514 0.19196,-0.15383 0.27443,-0.241564 0.2778,-0.295527 0.47102,-0.564785 0.70828,-0.878054 0.0964,-0.127299 0.19981,-0.250705 0.28924,-0.381897 0.13025,-0.191083 0.19428,-0.513824 0.43116,-0.634136 0.03,-0.01526 0.0765,0.01854 0.10407,0 0.0211,-0.01417 -0.01,-0.04823 0,-0.07001 0.0359,-0.08189 0.0623,-0.17424 0.13377,-0.235484 0.0515,-0.312711 0.30702,-0.05287 0.43384,-0.127299 0.11345,-0.06657 0.17233,-0.192848 0.28924,-0.254598 0.13072,-0.06904 0.31191,-0.04679 0.43386,-0.127298 0.60451,-0.399086 -0.51161,-0.189989 0.57847,-0.381897 0.0945,-0.01664 0.1957,0.02058 0.28924,0 0.10457,-0.02301 0.18698,-0.09729 0.28923,-0.127299 0.18856,-0.05532 0.38736,-0.07923 0.57848,-0.127299 0.14657,-0.03686 0.28436,-0.100983 0.43385,-0.127298 0.0945,-0.01664 0.19777,0.02684 0.28923,0 0.0647,-0.01898 0.0785,-0.112745 0.14462,-0.127299 0.15221,-0.03349 0.66012,0 0.86771,0 0.23922,0 0.47845,0 0.71767,0 0.14282,0 0.28709,-0.01787 0.42845,0 0.19674,0.02487 0.38565,0.08487 0.57848,0.127299 0.19282,0.04243 0.38565,0.08486 0.57847,0.127298 0.19282,0.04243 0.39237,0.06587 0.57846,0.127299 0.20187,0.06663 0.37199,0.200069 0.57848,0.254598 0.28086,0.07417 0.58685,0.05313 0.86771,0.127299 0.61164,0.161518 1.06969,0.599706 1.5908,0.891091 0.35283,0.197292 0.71312,0.385973 1.08748,0.549649 0.50219,0.219557 1.03646,0.378899 1.53862,0.598496 0.98397,0.430292 1.91867,0.97541 2.83141,1.510749 0.14546,0.08532 0.28661,0.176651 0.43654,0.25578 0.0924,0.04879 0.21301,0.06021 0.28923,0.127299 0.0341,0.03 -0.0287,0.09323 0,0.127299 0.11723,0.138966 0.30881,0.222725 0.41714,0.36718 0.084,0.111986 0.0531,0.274549 0.14462,0.381897 0.0647,0.07591 0.22189,0.05321 0.28923,0.127299 0.26934,0.296364 0.31977,0.714765 0.57847,1.01839 0.16361,0.192029 0.401,0.326945 0.57847,0.509195 0.11312,0.116162 0.16633,0.273713 0.28924,0.381897 0.17043,0.150023 0.40803,0.231873 0.57847,0.381896 0.32093,0.282498 0.63822,0.822474 0.8677,1.14569 0.0921,0.129739 0.16634,0.273713 0.28925,0.381896 1.52877,1.345696 -0.42031,-0.695599 1.15694,0.891092 0.15872,0.15967 0.277,0.348108 0.43385,0.509196 0.2662,0.273374 0.60151,0.490418 0.86771,0.763792 0.31372,0.322176 0.55027,0.699051 0.8677,1.018392 0.17958,0.180646 0.39891,0.328548 0.57848,0.509194 0.15872,0.159671 0.27699,0.348108 0.43385,0.509196 0.28701,0.294744 0.69368,0.610604 1.01233,0.891088 0.40914,0.360135 0.80512,0.75381 1.30592,1.020962 0.83555,0.445724 2.30826,0.952163 3.16231,1.230108 0.54159,0.176262 1.09474,0.323677 1.64213,0.485482 0.1466,0.04333 0.29011,0.09581 0.43981,0.129933 0.0392,0.0089 0.40518,0.01188 0.44226,0 0.10002,-0.03205 0.18231,-0.103111 0.2856,-0.125699 0.47555,-0.103986 0.13754,0.133539 0.43386,-0.127298"
       id="path308" />
    <circle
       style="fill:#e80000;fill-opacity:1;stroke:none;stroke-width:0.529167;stroke-linejoin:round;stroke-dasharray:none"
       id="path1024"
       cx="25.553089"
       cy="91.746185"
       r="1.1216112" />
    <circle
       style="fill:#e80000;fill-opacity:1;stroke:none;stroke-width:0.529167;stroke-linejoin:round;stroke-dasharray:none"
       id="path1024-0"
       cx="155.0928"
       cy="16.128235"
       r="1.1216112" />
    <text
       xml:space="preserve"
       style="font-style:normal;font-variant:normal;font-weight:600;font-stretch:normal;font-size:4.23333px;line-height:1.25;font-family:'Open Sans';-inkscape-font-specification:'Open Sans, Semi-Bold';font-variant-ligatures:normal;font-variant-caps:normal;font-variant-numeric:normal;font-variant-east-asian:normal;text-align:center;letter-spacing:0px;word-spacing:0px;text-anchor:middle;fill:#000000;fill-opacity:1;stroke:none;stroke-width:0.264583"
       x="155.82909"
       y="8.0657845"
       id="text1080"><tspan
         sodipodi:role="line"
         id="tspan1078"
         style="font-style:normal;font-variant:normal;font-weight:600;font-stretch:normal;font-size:4.23333px;font-family:'Open Sans';-inkscape-font-specification:'Open Sans, Semi-Bold';font-variant-ligatures:normal;font-variant-caps:normal;font-variant-numeric:normal;font-variant-east-asian:normal;text-align:center;text-anchor:middle;stroke-width:0.264583"
         x="155.82909"
         y="8.0657845">B</tspan><tspan
         sodipodi:role="line"
         style="font-style:normal;font-variant:normal;font-weight:600;font-stretch:normal;font-size:4.23333px;font-family:'Open Sans';-inkscape-font-specification:'Open Sans, Semi-Bold';font-variant-ligatures:normal;font-variant-caps:normal;font-variant-numeric:normal;font-variant-east-asian:normal;text-align:center;text-anchor:middle;stroke-width:0.264583"
         x="155.82909"
         y="13.357446"
         id="tspan1132">(altitude: 2400 m)</tspan></text>
    <text
       xml:space="preserve"
       style="font-style:normal;font-variant:normal;font-weight:600;font-stretch:normal;font-size:4.23333px;line-height:1.25;font-family:'Open Sans';-inkscape-font-specification:'Open Sans, Semi-Bold';font-variant-ligatures:normal;font-variant-caps:normal;font-variant-numeric:normal;font-variant-east-asian:normal;text-align:center;letter-spacing:0px;word-spacing:0px;text-anchor:middle;fill:#000000;fill-opacity:1;stroke:none;stroke-width:0.264583"
       x="25.282818"
       y="96.860229"
       id="text1080-3"><tspan
         sodipodi:role="line"
         id="tspan1078-6"
         style="font-style:normal;font-variant:normal;font-weight:600;font-stretch:normal;font-size:4.23333px;font-family:'Open Sans';-inkscape-font-specification:'Open Sans, Semi-Bold';font-variant-ligatures:normal;font-variant-caps:normal;font-variant-numeric:normal;font-variant-east-asian:normal;text-align:center;text-anchor:middle;stroke-width:0.264583"
         x="25.282818"
         y="96.860229">A</tspan><tspan
         sodipodi:role="line"
         style="font-style:normal;font-variant:normal;font-weight:600;font-stretch:normal;font-size:4.23333px;font-family:'Open Sans';-inkscape-font-specification:'Open Sans, Semi-Bold';font-variant-ligatures:normal;font-variant-caps:normal;font-variant-numeric:normal;font-variant-east-asian:normal;text-align:center;text-anchor:middle;stroke-width:0.264583"
         x="25.282818"
         y="102.15189"
         id="tspan1132-1">(altitude: 450 m)</tspan></text>
    <text
       xml:space="preserve"
       style="font-style:normal;font-variant:normal;font-weight:600;font-stretch:normal;font-size:4.23333px;line-height:1.25;font-family:'Open Sans';-inkscape-font-specification:'Open Sans, Semi-Bold';font-variant-ligatures:normal;font-variant-caps:normal;font-variant-numeric:normal;font-variant-east-asian:normal;text-align:center;letter-spacing:0px;word-spacing:0px;text-anchor:middle;fill:#000000;fill-opacity:1;stroke:none;stroke-width:0.264583"
       x="155.67743"
       y="96.560051"
       id="text1080-3-0"><tspan
         sodipodi:role="line"
         style="font-style:normal;font-variant:normal;font-weight:600;font-stretch:normal;font-size:4.23333px;font-family:'Open Sans';-inkscape-font-specification:'Open Sans, Semi-Bold';font-variant-ligatures:normal;font-variant-caps:normal;font-variant-numeric:normal;font-variant-east-asian:normal;text-align:center;text-anchor:middle;stroke-width:0.264583"
         x="155.67743"
         y="96.560051"
         id="tspan1132-1-1">C</tspan></text>
    <text
       xml:space="preserve"
       style="font-style:normal;font-variant:normal;font-weight:600;font-stretch:normal;font-size:4.23333px;line-height:1.25;font-family:'Open Sans';-inkscape-font-specification:'Open Sans, Semi-Bold';font-variant-ligatures:normal;font-variant-caps:normal;font-variant-numeric:normal;font-variant-east-asian:normal;text-align:center;letter-spacing:0px;word-spacing:0px;text-anchor:middle;fill:#000000;fill-opacity:1;stroke:none;stroke-width:0.264583"
       x="100.29633"
       y="90.597267"
       id="text1080-3-0-5"><tspan
         sodipodi:role="line"
         style="font-style:normal;font-variant:normal;font-weight:600;font-stretch:normal;font-size:4.23333px;font-family:'Open Sans';-inkscape-font-specification:'Open Sans, Semi-Bold';font-variant-ligatures:normal;font-variant-caps:normal;font-variant-numeric:normal;font-variant-east-asian:normal;text-align:center;text-anchor:middle;stroke-width:0.264583"
         x="100.29633"
         y="90.597267"
         id="tspan1421">distance mesurable sur la carte:</tspan><tspan
         sodipodi:role="line"
         style="font-style:normal;font-variant:normal;font-weight:600;font-stretch:normal;font-size:4.23333px;font-family:'Open Sans';-inkscape-font-specification:'Open Sans, Semi-Bold';font-variant-ligatures:normal;font-variant-caps:normal;font-variant-numeric:normal;font-variant-east-asian:normal;text-align:center;text-anchor:middle;stroke-width:0.264583"
         x="100.29633"
         y="95.888931"
         id="tspan1445">12 km</tspan></text>
    <path
       style="fill:none;stroke:#7c2dc2;stroke-width:0.529167;stroke-linecap:butt;stroke-linejoin:miter;stroke-dasharray:0.529167, 0.529167;stroke-dashoffset:0;stroke-opacity:1"
       d="M 25.73464,92.007912 155.18432,16.078525"
       id="path1341"
       sodipodi:nodetypes="cc" />
    <text
       xml:space="preserve"
       style="font-style:normal;font-variant:normal;font-weight:600;font-stretch:normal;font-size:4.23333px;line-height:1.25;font-family:'Open Sans';-inkscape-font-specification:'Open Sans, Semi-Bold';font-variant-ligatures:normal;font-variant-caps:normal;font-variant-numeric:normal;font-variant-east-asian:normal;text-align:center;letter-spacing:0px;word-spacing:0px;text-anchor:middle;fill:#000000;fill-opacity:1;stroke:none;stroke-width:0.264583"
       x="30.085649"
       y="90.586777"
       id="text1080-3-0-5-4"
       transform="rotate(-30.599132)"><tspan
         sodipodi:role="line"
         style="font-style:normal;font-variant:normal;font-weight:600;font-stretch:normal;font-size:4.23333px;font-family:'Open Sans';-inkscape-font-specification:'Open Sans, Semi-Bold';font-variant-ligatures:normal;font-variant-caps:normal;font-variant-numeric:normal;font-variant-east-asian:normal;text-align:center;text-anchor:middle;stroke-width:0.264583"
         x="30.085649"
         y="90.586777"
         id="tspan1445-6">distance vol d'oiseau</tspan></text>
  </g>
</svg>
